<svg width="46" height="46" viewBox="0 0 46 46" fill="none" xmlns="http://www.w3.org/2000/svg">
<path d="M36.9092 19.0771L36.8789 19.0771C36.8509 19.0771 36.8049 19.0781 36.7441 19.0791C36.6218 19.0812 36.4365 19.0862 36.2012 19.1006C35.7277 19.1295 35.0555 19.1929 34.2832 19.332C32.7081 19.616 30.8465 20.1896 29.3535 21.2891C27.7991 22.434 26.4532 24.077 25.4736 25.4932C24.9909 26.1911 24.6113 26.8124 24.3555 27.2549C24.3078 27.3373 24.2663 27.4154 24.2275 27.4844L24.166 27.5937C24.1287 27.6611 24.0953 27.7184 24.0693 27.7666C24.0405 27.8202 24.0191 27.8623 24.0049 27.8896L22.4668 31L20.6494 27.3213C20.6372 27.2996 20.6243 27.2774 20.6113 27.2549C20.3555 26.8124 19.9767 26.1909 19.4941 25.4932C18.5145 24.0769 17.1678 22.4341 15.6133 21.2891C14.1202 20.1895 12.2587 19.616 10.6836 19.332C9.9114 19.1929 9.2401 19.1295 8.7666 19.1006C8.531 19.0862 8.34504 19.0812 8.22266 19.0791C8.16244 19.0781 8.11684 19.0771 8.08887 19.0771L8.05762 19.0771L8 15L8.08203 15C8.12828 14.9999 8.19385 15.0006 8.27442 15.002C8.43655 15.0047 8.66626 15.0111 8.94922 15.0283C9.51517 15.0629 10.3057 15.1387 11.2158 15.3027C13.0068 15.6256 15.404 16.3159 17.4746 17.8408C18.7218 18.7594 19.9938 19.8951 20.9111 20.998L22.6016 22.6885L24.2275 20.9922C25.1452 19.8886 26.2452 18.76 27.4932 17.8408C29.5639 16.3159 31.961 15.6255 33.752 15.3027C34.6623 15.1387 35.4526 15.0629 36.0186 15.0283C36.3017 15.011 36.5312 15.0047 36.6934 15.002C36.7742 15.0006 36.8395 14.9999 36.8857 15L36.9678 15L36.9092 19.0771Z" fill="#22262B"/>
</svg>
